%TF.GenerationSoftware,KiCad,Pcbnew,9.0.2-9.0.2-0~ubuntu24.04.1*%
%TF.CreationDate,2026-01-22T11:57:20-05:00*%
%TF.ProjectId,FluOptiDriverBoard,466c754f-7074-4694-9472-69766572426f,rev?*%
%TF.SameCoordinates,Original*%
%TF.FileFunction,Soldermask,Bot*%
%TF.FilePolarity,Negative*%
%FSLAX46Y46*%
G04 Gerber Fmt 4.6, Leading zero omitted, Abs format (unit mm)*
G04 Created by KiCad (PCBNEW 9.0.2-9.0.2-0~ubuntu24.04.1) date 2026-01-22 11:57:20*
%MOMM*%
%LPD*%
G01*
G04 APERTURE LIST*
G04 Aperture macros list*
%AMRoundRect*
0 Rectangle with rounded corners*
0 $1 Rounding radius*
0 $2 $3 $4 $5 $6 $7 $8 $9 X,Y pos of 4 corners*
0 Add a 4 corners polygon primitive as box body*
4,1,4,$2,$3,$4,$5,$6,$7,$8,$9,$2,$3,0*
0 Add four circle primitives for the rounded corners*
1,1,$1+$1,$2,$3*
1,1,$1+$1,$4,$5*
1,1,$1+$1,$6,$7*
1,1,$1+$1,$8,$9*
0 Add four rect primitives between the rounded corners*
20,1,$1+$1,$2,$3,$4,$5,0*
20,1,$1+$1,$4,$5,$6,$7,0*
20,1,$1+$1,$6,$7,$8,$9,0*
20,1,$1+$1,$8,$9,$2,$3,0*%
%AMFreePoly0*
4,1,23,0.500000,-0.750000,0.000000,-0.750000,0.000000,-0.745722,-0.065263,-0.745722,-0.191342,-0.711940,-0.304381,-0.646677,-0.396677,-0.554381,-0.461940,-0.441342,-0.495722,-0.315263,-0.495722,-0.250000,-0.500000,-0.250000,-0.500000,0.250000,-0.495722,0.250000,-0.495722,0.315263,-0.461940,0.441342,-0.396677,0.554381,-0.304381,0.646677,-0.191342,0.711940,-0.065263,0.745722,0.000000,0.745722,
0.000000,0.750000,0.500000,0.750000,0.500000,-0.750000,0.500000,-0.750000,$1*%
%AMFreePoly1*
4,1,23,0.000000,0.745722,0.065263,0.745722,0.191342,0.711940,0.304381,0.646677,0.396677,0.554381,0.461940,0.441342,0.495722,0.315263,0.495722,0.250000,0.500000,0.250000,0.500000,-0.250000,0.495722,-0.250000,0.495722,-0.315263,0.461940,-0.441342,0.396677,-0.554381,0.304381,-0.646677,0.191342,-0.711940,0.065263,-0.745722,0.000000,-0.745722,0.000000,-0.750000,-0.500000,-0.750000,
-0.500000,0.750000,0.000000,0.750000,0.000000,0.745722,0.000000,0.745722,$1*%
G04 Aperture macros list end*
%ADD10R,1.700000X1.700000*%
%ADD11O,1.700000X1.700000*%
%ADD12RoundRect,0.250000X-0.750000X0.600000X-0.750000X-0.600000X0.750000X-0.600000X0.750000X0.600000X0*%
%ADD13O,2.000000X1.700000*%
%ADD14RoundRect,0.250000X0.750000X1.050000X-0.750000X1.050000X-0.750000X-1.050000X0.750000X-1.050000X0*%
%ADD15O,2.000000X2.600000*%
%ADD16RoundRect,0.250000X-0.750000X-1.050000X0.750000X-1.050000X0.750000X1.050000X-0.750000X1.050000X0*%
%ADD17RoundRect,0.250000X-1.050000X0.750000X-1.050000X-0.750000X1.050000X-0.750000X1.050000X0.750000X0*%
%ADD18O,2.600000X2.000000*%
%ADD19FreePoly0,0.000000*%
%ADD20FreePoly1,0.000000*%
G04 APERTURE END LIST*
D10*
%TO.C,J10*%
X194380141Y-67940027D03*
D11*
X196920141Y-67940027D03*
%TD*%
D10*
%TO.C,J20*%
X154695000Y-77610000D03*
D11*
X154695000Y-80150000D03*
X152155000Y-77610000D03*
X152155000Y-80150000D03*
X149615000Y-77610000D03*
X149615000Y-80150000D03*
%TD*%
D12*
%TO.C,J14*%
X187225000Y-79750000D03*
D13*
X187225000Y-82250000D03*
%TD*%
D14*
%TO.C,J2*%
X169800000Y-123250000D03*
D15*
X166300000Y-123250000D03*
%TD*%
D16*
%TO.C,J12*%
X113100000Y-56300000D03*
D15*
X116600000Y-56300000D03*
%TD*%
D14*
%TO.C,J9*%
X116100000Y-123250000D03*
D15*
X112600000Y-123250000D03*
%TD*%
D10*
%TO.C,J13*%
X194380141Y-63440027D03*
D11*
X196920141Y-63440027D03*
%TD*%
D10*
%TO.C,J21*%
X142825000Y-114450000D03*
D11*
X142825000Y-111910000D03*
X145365000Y-114450000D03*
X145365000Y-111910000D03*
%TD*%
D14*
%TO.C,J1*%
X159350000Y-123250000D03*
D15*
X155850000Y-123250000D03*
%TD*%
D12*
%TO.C,J15*%
X187225000Y-91200000D03*
D13*
X187225000Y-93700000D03*
%TD*%
D14*
%TO.C,J8*%
X126500000Y-123250000D03*
D15*
X123000000Y-123250000D03*
%TD*%
D12*
%TO.C,J18*%
X195450000Y-91325000D03*
D13*
X195450000Y-93825000D03*
%TD*%
D14*
%TO.C,J7*%
X148900000Y-123250000D03*
D15*
X145400000Y-123250000D03*
%TD*%
D17*
%TO.C,J4*%
X193425000Y-103175000D03*
D18*
X193425000Y-106675000D03*
%TD*%
D10*
%TO.C,J19*%
X106175000Y-67460000D03*
D11*
X106175000Y-70000000D03*
X106175000Y-72540000D03*
%TD*%
D10*
%TO.C,J16*%
X194365141Y-58940027D03*
D11*
X196905141Y-58940027D03*
%TD*%
D14*
%TO.C,J5*%
X180375000Y-123250000D03*
D15*
X176875000Y-123250000D03*
%TD*%
D10*
%TO.C,J11*%
X194380141Y-72440027D03*
D11*
X196920141Y-72440027D03*
%TD*%
D14*
%TO.C,J6*%
X138400000Y-123250000D03*
D15*
X134900000Y-123250000D03*
%TD*%
D17*
%TO.C,J3*%
X193475000Y-113900000D03*
D18*
X193475000Y-117400000D03*
%TD*%
D12*
%TO.C,J17*%
X195450000Y-79750000D03*
D13*
X195450000Y-82250000D03*
%TD*%
D19*
%TO.C,JP1*%
X124700000Y-93750000D03*
D20*
X126000000Y-93750000D03*
%TD*%
M02*
