M48
; DRILL file {KiCad 9.0.2-9.0.2-0~ubuntu24.04.1} date 2026-01-22T11:57:33-0500
; FORMAT={-:-/ absolute / metric / decimal}
; #@! TF.CreationDate,2026-01-22T11:57:33-05:00
; #@! TF.GenerationSoftware,Kicad,Pcbnew,9.0.2-9.0.2-0~ubuntu24.04.1
; #@! TF.FileFunction,Plated,1,2,PTH
FMAT,2
METRIC
; #@! TA.AperFunction,Plated,PTH,ViaDrill
T1C0.300
; #@! TA.AperFunction,Plated,PTH,ComponentDrill
T2C1.000
; #@! TA.AperFunction,Plated,PTH,ComponentDrill
T3C1.600
%
G90
G05
T1
X101.775Y-123.05
X102.625Y-57.575
X103.675Y-113.425
X103.8Y-105.1
X104.175Y-96.025
X106.325Y-103.225
X106.45Y-119.95
X107.875Y-99.4
X107.95Y-53.15
X108.325Y-74.725
X108.8Y-77.775
X109.175Y-59.425
X110.1Y-105.975
X110.425Y-115.875
X110.575Y-89.05
X111.3Y-94.525
X112.375Y-65.45
X113.175Y-81.8
X113.525Y-70.85
X114.325Y-77.4
X114.575Y-120.075
X116.75Y-99.525
X117.425Y-109.0
X118.0Y-92.325
X118.45Y-86.5
X119.55Y-56.95
X120.55Y-114.95
X121.025Y-125.35
X121.15Y-90.625
X123.225Y-91.6
X123.525Y-126.65
X125.85Y-77.175
X126.0Y-116.325
X126.575Y-86.65
X126.925Y-109.45
X127.125Y-53.775
X127.95Y-69.55
X128.45Y-58.875
X128.77Y-80.536
X129.225Y-87.215
X129.85Y-121.575
X129.85Y-124.25
X131.75Y-81.025
X132.45Y-64.575
X132.55Y-82.55
X132.625Y-87.75
X132.925Y-76.425
X133.75Y-93.25
X133.9Y-105.55
X134.35Y-126.725
X134.375Y-77.625
X134.7Y-60.15
X134.75Y-114.75
X134.775Y-87.225
X135.15Y-68.6
X135.425Y-95.275
X135.625Y-120.4
X135.725Y-78.55
X135.825Y-98.75
X136.425Y-53.0
X136.75Y-101.575
X137.75Y-90.5
X137.95Y-97.05
X138.15Y-87.625
X138.475Y-92.6
X138.575Y-120.3
X139.042Y-51.243
X139.125Y-116.825
X139.225Y-57.15
X140.0Y-105.675
X140.6Y-87.15
X143.12Y-126.267
X143.325Y-86.85
X145.284Y-87.596
X145.5Y-65.075
X145.525Y-60.175
X146.3Y-118.775
X146.375Y-126.35
X147.025Y-73.85
X147.425Y-70.05
X147.525Y-82.575
X148.575Y-92.075
X148.614Y-98.97
X149.725Y-105.95
X150.15Y-87.025
X150.9Y-82.125
X151.175Y-68.15
X152.8Y-60.0
X152.8Y-60.0
X152.8Y-61.125
X152.8Y-62.225
X153.275Y-96.075
X153.325Y-99.55
X154.225Y-109.6
X154.225Y-113.2
X155.15Y-59.25
X155.35Y-74.025
X155.425Y-93.475
X156.05Y-65.35
X157.625Y-88.8
X160.0Y-107.925
X160.1Y-106.0
X160.425Y-84.225
X161.125Y-54.8
X161.255Y-126.477
X161.475Y-120.175
X161.498Y-59.863
X161.575Y-112.325
X162.037Y-80.612
X163.075Y-104.425
X163.55Y-78.825
X163.825Y-89.425
X164.05Y-100.025
X164.7Y-85.625
X165.1Y-59.7
X166.55Y-108.125
X166.8Y-88.4
X167.225Y-79.55
X168.3Y-84.5
X168.375Y-90.275
X168.95Y-111.575
X169.4Y-104.2
X169.575Y-91.325
X170.3Y-93.525
X170.75Y-120.425
X171.35Y-89.175
X171.786Y-107.524
X171.825Y-63.85
X172.075Y-55.8
X172.45Y-126.3
X172.525Y-98.95
X173.725Y-91.875
X173.925Y-90.375
X174.15Y-98.95
X174.725Y-100.9
X175.125Y-83.6
X176.1Y-55.325
X176.95Y-60.525
X177.175Y-89.375
X177.5Y-80.075
X178.225Y-69.025
X178.45Y-92.15
X178.625Y-101.7
X179.65Y-116.45
X179.7Y-108.875
X180.605Y-87.789
X180.845Y-74.248
X181.1Y-97.95
X182.275Y-93.525
X182.475Y-126.375
X183.825Y-121.6
X184.325Y-81.25
X184.475Y-97.55
X184.525Y-86.15
X187.525Y-64.55
X187.7Y-57.975
X187.7Y-126.6
X188.375Y-69.925
X188.475Y-102.3
X189.116Y-86.447
X190.175Y-98.2
X190.751Y-51.974
X190.875Y-90.65
X191.025Y-81.25
X191.15Y-76.525
X192.2Y-86.0
X192.35Y-121.75
X193.2Y-96.825
X193.5Y-128.6
X193.75Y-54.975
X196.575Y-75.6
X197.65Y-100.575
X198.275Y-85.05
X198.475Y-123.525
T2
X106.175Y-67.46
X106.175Y-70.0
X106.175Y-72.54
X142.825Y-111.91
X142.825Y-114.45
X145.365Y-111.91
X145.365Y-114.45
X149.615Y-77.61
X149.615Y-80.15
X152.155Y-77.61
X152.155Y-80.15
X154.695Y-77.61
X154.695Y-80.15
X187.225Y-79.75
X187.225Y-82.25
X187.225Y-91.2
X187.225Y-93.7
X194.365Y-58.94
X194.38Y-63.44
X194.38Y-67.94
X194.38Y-72.44
X195.45Y-79.75
X195.45Y-82.25
X195.45Y-91.325
X195.45Y-93.825
X196.905Y-58.94
X196.92Y-63.44
X196.92Y-67.94
X196.92Y-72.44
T3
X112.6Y-123.25
X113.1Y-56.3
X116.1Y-123.25
X116.6Y-56.3
X123.0Y-123.25
X126.5Y-123.25
X134.9Y-123.25
X138.4Y-123.25
X145.4Y-123.25
X148.9Y-123.25
X155.85Y-123.25
X159.35Y-123.25
X166.3Y-123.25
X169.8Y-123.25
X176.875Y-123.25
X180.375Y-123.25
X193.425Y-103.175
X193.425Y-106.675
X193.475Y-113.9
X193.475Y-117.4
M30
